<?xml version="1.0" encoding="utf-8"?>
<!-- Generator: Adobe Illustrator 15.1.0, SVG Export Plug-In . SVG Version: 6.00 Build 0)  -->
<!DOCTYPE svg PUBLIC "-//W3C//DTD SVG 1.1//EN" "http://www.w3.org/Graphics/SVG/1.1/DTD/svg11.dtd">
<svg version="1.1" id="Layer_1" xmlns="http://www.w3.org/2000/svg" xmlns:xlink="http://www.w3.org/1999/xlink" x="0px" y="0px"
	 width="789px" height="306px" viewBox="0 0 789 306" enable-background="new 0 0 789 306"
	 xml:space="preserve">
<rect fill="#EF4A8D" width="789" height="306"/>
<g>
	<defs>
		<rect id="SVGID_1_" width="789" height="306"/>
	</defs>
	<clipPath id="SVGID_2_">
		<use xlink:href="#SVGID_1_"  overflow="visible"/>
	</clipPath>
	<path clip-path="url(#SVGID_2_)" fill-rule="evenodd" clip-rule="evenodd" fill="#FFFFFF" d="M338.199,153.174
		c0-35.931-22.307-57.872-60.154-57.872c-38.031,0-60.153,21.941-60.153,57.872c0,35.932,22.122,57.874,60.153,57.874
		C315.892,211.048,338.199,189.106,338.199,153.174 M318.086,153.174c0,33.229-19.014,41.52-40.041,41.52
		c-21.208,0-40.224-8.29-40.224-41.52c0-33.07,19.198-41.521,40.224-41.521C299.072,111.653,318.086,120.104,318.086,153.174"/>
	<path clip-path="url(#SVGID_2_)" fill-rule="evenodd" clip-rule="evenodd" fill="#FFFFFF" d="M462.438,208.874v-98.366
		c0-12.954-9.273-12.903-19.361-12.903c0,51.327-0.019,111.269-0.019,111.269H462.438z"/>
	<path clip-path="url(#SVGID_2_)" fill-rule="evenodd" clip-rule="evenodd" fill="#FFFFFF" d="M574.804,199.382
		c-3.069,7.115-6.05,8.8-13.717,9.076h-9.834l48.271-111.295h25.6l48.085,111.295c0,0-8.856-0.031-9.022-0.031
		c-8.885,0.007-12.202-2.036-15.411-9.045l-36.086-87.18h-2.013L574.804,199.382z"/>
	<path clip-path="url(#SVGID_2_)" fill="#FFFFFF" d="M371.765,195.36h46.394c13.389,0,11.948,13.514,11.948,13.514l-58.342-0.013
		l-19.38,0.013V97.58c10.087,0,19.38-0.038,19.38,12.916V195.36z"/>
	<path clip-path="url(#SVGID_2_)" fill-rule="evenodd" clip-rule="evenodd" fill="#FFFFFF" d="M207.712,175.412
		c0-25.199-28.054-27.605-49.092-33.223c-9.967-2.729-20.486-6.42-20.486-17.173c0-13.48,15.302-16.101,28.589-16.101
		c5.376,0,11.846,1.295,17.836,2.158c10.498,2.401,13.741-11.169,13.741-11.169c-4.206-1.933-17.718-5.218-30.637-5.218
		c-27.499,0-48.17,9.629-48.17,31.293c0,26.802,26.023,29.53,48.539,35.31c9.966,2.567,20.301,6.097,20.301,16.687
		c0,11.97-11.821,17.049-27.274,17.049c-10.19,0-17.11-0.745-27.103-4.402c-11.754-4.296-18.284,10.149-18.284,10.149
		c9.998,6.242,25.114,10.107,41.135,10.107C198.374,210.878,207.712,189.535,207.712,175.412"/>
	<path clip-path="url(#SVGID_2_)" fill="#FFFFFF" d="M509.315,111.095h-22.066c-13.392,0-11.952-13.515-11.952-13.515l34.019,0.012
		l19.38-0.012h34.006c0,0,1.437,13.515-11.95,13.515h-22.067l0.012,97.779H509.3L509.315,111.095z"/>
</g>
</svg>
